<svg width="800" height="500" xmlns="http://www.w3.org/2000/svg">
  <rect width="100%" height="100%" fill="#f0f4f8"/>
  
  <!-- Dashboard container -->
  <rect x="50" y="50" width="700" height="400" rx="8" fill="#ffffff" stroke="#e2e8f0" stroke-width="2"/>
  
  <!-- Header -->
  <rect x="50" y="50" width="700" height="60" rx="8" fill="#f8fafc" stroke="#e2e8f0" stroke-width="1"/>
  <text x="80" y="85" font-family="Arial" font-size="18" font-weight="bold" fill="#0f172a">FigPro Dashboard</text>
  
  <!-- Navigation -->
  <rect x="50" y="110" width="200" height="340" fill="#f8fafc" stroke="#e2e8f0" stroke-width="1"/>
  
  <!-- Nav items -->
  <rect x="65" y="130" width="170" height="40" rx="4" fill="#3b82f6" opacity="0.1"/>
  <text x="100" y="155" font-family="Arial" font-size="14" fill="#3b82f6">Dashboard</text>
  <circle cx="80" cy="150" r="8" fill="#3b82f6"/>
  
  <rect x="65" y="180" width="170" height="40" rx="4" fill="transparent"/>
  <text x="100" y="205" font-family="Arial" font-size="14" fill="#64748b">Projects</text>
  <circle cx="80" cy="200" r="8" fill="#94a3b8"/>
  
  <rect x="65" y="230" width="170" height="40" rx="4" fill="transparent"/>
  <text x="100" y="255" font-family="Arial" font-size="14" fill="#64748b">Components</text>
  <circle cx="80" cy="250" r="8" fill="#94a3b8"/>
  
  <rect x="65" y="280" width="170" height="40" rx="4" fill="transparent"/>
  <text x="100" y="305" font-family="Arial" font-size="14" fill="#64748b">Accessibility</text>
  <circle cx="80" cy="300" r="8" fill="#94a3b8"/>
  
  <rect x="65" y="330" width="170" height="40" rx="4" fill="transparent"/>
  <text x="100" y="355" font-family="Arial" font-size="14" fill="#64748b">Settings</text>
  <circle cx="80" cy="350" r="8" fill="#94a3b8"/>
  
  <!-- Main content area -->
  <rect x="250" y="110" width="500" height="340" fill="#ffffff"/>
  
  <!-- Stats boxes -->
  <rect x="270" y="130" width="220" height="100" rx="8" fill="#f1f5f9" stroke="#e2e8f0" stroke-width="1"/>
  <text x="290" y="160" font-family="Arial" font-size="14" fill="#64748b">Total Projects</text>
  <text x="290" y="195" font-family="Arial" font-size="28" font-weight="bold" fill="#0f172a">24</text>
  <path d="M410,180 L450,150 L450,180 L410,180 Z" fill="#10b981"/>
  <text x="410" y="195" font-family="Arial" font-size="14" fill="#10b981">+12%</text>
  
  <rect x="510" y="130" width="220" height="100" rx="8" fill="#f1f5f9" stroke="#e2e8f0" stroke-width="1"/>
  <text x="530" y="160" font-family="Arial" font-size="14" fill="#64748b">A11Y Score</text>
  <text x="530" y="195" font-family="Arial" font-size="28" font-weight="bold" fill="#0f172a">98%</text>
  <path d="M650,180 L690,150 L690,180 L650,180 Z" fill="#10b981"/>
  <text x="650" y="195" font-family="Arial" font-size="14" fill="#10b981">+5%</text>
  
  <!-- Recent projects -->
  <text x="270" y="270" font-family="Arial" font-size="16" font-weight="bold" fill="#0f172a">Recent Projects</text>
  
  <!-- Project rows -->
  <rect x="270" y="290" width="460" height="50" rx="4" fill="#f8fafc" stroke="#e2e8f0" stroke-width="1"/>
  <circle cx="295" cy="315" r="15" fill="#3b82f6" opacity="0.2"/>
  <text x="320" y="320" font-family="Arial" font-size="14" fill="#0f172a">Website Redesign</text>
  <text x="670" y="320" font-family="Arial" font-size="14" fill="#64748b">2d ago</text>
  
  <rect x="270" y="350" width="460" height="50" rx="4" fill="#f8fafc" stroke="#e2e8f0" stroke-width="1"/>
  <circle cx="295" cy="375" r="15" fill="#f97316" opacity="0.2"/>
  <text x="320" y="380" font-family="Arial" font-size="14" fill="#0f172a">Mobile App UI</text>
  <text x="670" y="380" font-family="Arial" font-size="14" fill="#64748b">5d ago</text>
  
  <!-- User avatar -->
  <circle cx="680" cy="80" r="20" fill="#3b82f6" opacity="0.2"/>
  <text x="680" y="85" font-family="Arial" font-size="14" fill="#3b82f6" text-anchor="middle">AB</text>
</svg>