<svg width="800" height="450" xmlns="http://www.w3.org/2000/svg">
  <rect width="800" height="450" fill="#F1F5F9"/>
  
  <!-- Main application window -->
  <rect x="50" y="50" width="700" height="350" rx="8" fill="#FFFFFF" stroke="#E2E8F0" stroke-width="2"/>
  
  <!-- Toolbar area -->
  <rect x="50" y="50" width="700" height="40" rx="8" fill="#F8FAFC" stroke="#E2E8F0" stroke-width="1"/>
  <circle cx="75" cy="70" r="5" fill="#F87171"/>
  <circle cx="95" cy="70" r="5" fill="#FBBF24"/>
  <circle cx="115" cy="70" r="5" fill="#34D399"/>
  
  <!-- File menu -->
  <rect x="150" y="60" width="50" height="20" rx="3" fill="#F1F5F9"/>
  <text x="160" y="75" font-family="Arial" font-size="10" fill="#64748B">File</text>
  
  <rect x="210" y="60" width="50" height="20" rx="3" fill="#F1F5F9"/>
  <text x="220" y="75" font-family="Arial" font-size="10" fill="#64748B">Edit</text>
  
  <rect x="270" y="60" width="60" height="20" rx="3" fill="#F1F5F9"/>
  <text x="280" y="75" font-family="Arial" font-size="10" fill="#64748B">View</text>
  
  <!-- Design canvas area -->
  <rect x="50" y="90" width="500" height="310" fill="#F8FAFC"/>
  
  <!-- Left panel -->
  <rect x="50" y="90" width="180" height="310" fill="#F1F5F9" stroke="#E2E8F0" stroke-width="1"/>
  
  <!-- Tool icons in left panel -->
  <circle cx="85" cy="120" r="10" stroke="#3B82F6" stroke-width="2" fill="none"/>
  <rect x="115" cy="110" width="20" height="20" stroke="#3B82F6" stroke-width="2" fill="none"/>
  <circle cx="155" cy="120" r="10" fill="#3B82F6" opacity="0.3"/>
  
  <rect x="70" y="150" width="20" height="20" stroke="#3B82F6" stroke-width="2" fill="none"/>
  <path d="M105,150 L125,170 M105,170 L125,150" stroke="#3B82F6" stroke-width="2"/>
  <rect x="140" y="150" width="20" height="20" fill="#3B82F6" opacity="0.3"/>
  
  <!-- Components panel -->
  <rect x="70" y="200" width="140" height="25" rx="4" fill="#3B82F6" opacity="0.1"/>
  <text x="85" y="217" font-family="Arial" font-size="12" fill="#3B82F6">Components</text>
  
  <rect x="70" y="235" width="140" height="25" rx="4" fill="#FFFFFF"/>
  <text x="85" y="252" font-family="Arial" font-size="12" fill="#64748B">Layouts</text>
  
  <rect x="70" y="270" width="140" height="25" rx="4" fill="#FFFFFF"/>
  <text x="85" y="287" font-family="Arial" font-size="12" fill="#64748B">Assets</text>
  
  <rect x="70" y="305" width="140" height="25" rx="4" fill="#FFFFFF"/>
  <text x="85" y="322" font-family="Arial" font-size="12" fill="#64748B">Typography</text>
  
  <!-- Main canvas with design elements -->
  <rect x="230" y="90" width="320" height="310" fill="#FFFFFF"/>
  
  <!-- Design elements -->
  <rect x="260" y="120" width="260" height="40" rx="4" fill="#F1F5F9"/>
  <text x="280" y="145" font-family="Arial" font-size="14" fill="#334155">Header Component</text>
  
  <rect x="260" y="180" width="120" height="120" rx="4" fill="#3B82F6" opacity="0.1"/>
  <rect x="270" y="190" width="100" height="12" fill="#94A3B8"/>
  <rect x="270" y="212" width="80" height="8" fill="#94A3B8"/>
  <rect x="270" y="230" width="80" height="8" fill="#94A3B8"/>
  <rect x="270" y="248" width="60" height="20" rx="4" fill="#3B82F6"/>
  <text x="280" y="262" font-family="Arial" font-size="10" fill="#FFFFFF">Button</text>
  
  <rect x="400" y="180" width="120" height="120" rx="4" fill="#DBEAFE"/>
  <circle cx="460" cy="215" r="25" fill="#93C5FD"/>
  <text x="460" cy="250" font-family="Arial" font-size="10" fill="#334155" text-anchor="middle">Image</text>
  
  <rect x="260" y="320" width="260" height="40" rx="4" fill="#F1F5F9"/>
  <text x="280" y="345" font-family="Arial" font-size="14" fill="#334155">Footer Component</text>
  
  <!-- Right properties panel -->
  <rect x="550" y="90" width="200" height="310" fill="#F8FAFC" stroke="#E2E8F0" stroke-width="1"/>
  <text x="570" y="115" font-family="Arial" font-size="12" font-weight="bold" fill="#334155">Properties</text>
  
  <rect x="570" y="130" width="160" height="1" fill="#E2E8F0"/>
  
  <text x="570" y="155" font-family="Arial" font-size="12" fill="#64748B">Width:</text>
  <rect x="620" y="140" width="90" height="20" rx="4" fill="#FFFFFF" stroke="#E2E8F0" stroke-width="1"/>
  <text x="630" y="155" font-family="Arial" font-size="12" fill="#334155">260px</text>
  
  <text x="570" y="185" font-family="Arial" font-size="12" fill="#64748B">Height:</text>
  <rect x="620" y="170" width="90" height="20" rx="4" fill="#FFFFFF" stroke="#E2E8F0" stroke-width="1"/>
  <text x="630" y="185" font-family="Arial" font-size="12" fill="#334155">40px</text>
  
  <text x="570" y="215" font-family="Arial" font-size="12" fill="#64748B">Border radius:</text>
  <rect x="620" y="200" width="90" height="20" rx="4" fill="#FFFFFF" stroke="#E2E8F0" stroke-width="1"/>
  <text x="630" y="215" font-family="Arial" font-size="12" fill="#334155">4px</text>
  
  <text x="570" y="245" font-family="Arial" font-size="12" fill="#64748B">Background:</text>
  <rect x="620" y="230" width="90" height="20" rx="4" fill="#FFFFFF" stroke="#E2E8F0" stroke-width="1"/>
  <text x="630" y="245" font-family="Arial" font-size="12" fill="#334155">#F1F5F9</text>
  <rect x="600" y="235" width="10" height="10" fill="#F1F5F9" stroke="#E2E8F0" stroke-width="1"/>
  
  <rect x="570" y="270" width="160" height="1" fill="#E2E8F0"/>
  <text x="570" y="295" font-family="Arial" font-size="12" font-weight="bold" fill="#334155">Accessibility</text>
  
  <text x="570" y="325" font-family="Arial" font-size="12" fill="#64748B">Contrast ratio:</text>
  <rect x="620" y="310" width="90" height="20" rx="4" fill="#FFFFFF" stroke="#3B82F6" stroke-width="1"/>
  <text x="630" y="325" font-family="Arial" font-size="12" fill="#334155">7.1:1 ✓</text>
  
  <rect x="570" y="350" width="90" height="25" rx="4" fill="#3B82F6"/>
  <text x="595" y="367" font-family="Arial" font-size="12" fill="#FFFFFF">Check A11Y</text>
</svg>